<?xml version="1.0" encoding="UTF-8" standalone="no"?>
<!-- Created with Inkscape (http://www.inkscape.org/) -->

<svg
   xmlns:dc="http://purl.org/dc/elements/1.1/"
   xmlns:cc="http://creativecommons.org/ns#"
   xmlns:rdf="http://www.w3.org/1999/02/22-rdf-syntax-ns#"
   xmlns:svg="http://www.w3.org/2000/svg"
   xmlns="http://www.w3.org/2000/svg"
   xmlns:sodipodi="http://sodipodi.sourceforge.net/DTD/sodipodi-0.dtd"
   xmlns:inkscape="http://www.inkscape.org/namespaces/inkscape"
   width="64.238983mm"
   height="12.022242mm"
   viewBox="0 0 64.238983 12.022241"
   version="1.1"
   id="svg8"
   inkscape:version="0.92.2 5c3e80d, 2017-08-06"
   sodipodi:docname="Find.Place.Infinite.svg">
  <defs
     id="defs2">
    <filter
       style="color-interpolation-filters:sRGB"
       inkscape:label="Drop Shadow"
       id="filter4876">
      <feFlood
         flood-opacity="1"
         flood-color="rgb(0,0,0)"
         result="flood"
         id="feFlood4866" />
      <feComposite
         in="flood"
         in2="SourceGraphic"
         operator="in"
         result="composite1"
         id="feComposite4868" />
      <feGaussianBlur
         in="composite1"
         stdDeviation="0"
         result="blur"
         id="feGaussianBlur4870" />
      <feOffset
         dx="1"
         dy="1"
         result="offset"
         id="feOffset4872" />
      <feComposite
         in="SourceGraphic"
         in2="offset"
         operator="over"
         result="composite2"
         id="feComposite4874" />
    </filter>
  </defs>
  <sodipodi:namedview
     id="base"
     pagecolor="#ffffff"
     bordercolor="#666666"
     borderopacity="1.0"
     inkscape:pageopacity="0.0"
     inkscape:pageshadow="2"
     inkscape:zoom="1.7544652"
     inkscape:cx="137.71121"
     inkscape:cy="26.426512"
     inkscape:document-units="mm"
     inkscape:current-layer="layer1"
     showgrid="false"
     inkscape:window-width="1581"
     inkscape:window-height="854"
     inkscape:window-x="302"
     inkscape:window-y="127"
     inkscape:window-maximized="0"
     showguides="false"
     fit-margin-top="0"
     fit-margin-left="0"
     fit-margin-right="0"
     fit-margin-bottom="0" />
  <metadata
     id="metadata5">
    <rdf:RDF>
      <cc:Work
         rdf:about="">
        <dc:format>image/svg+xml</dc:format>
        <dc:type
           rdf:resource="http://purl.org/dc/dcmitype/StillImage" />
        <dc:title></dc:title>
      </cc:Work>
    </rdf:RDF>
  </metadata>
  <g
     inkscape:label="Layer 1"
     inkscape:groupmode="layer"
     id="layer1"
     transform="translate(0.60575547,-286.18278)">
    <flowRoot
       xml:space="preserve"
       id="flowRoot3707"
       style="font-style:normal;font-weight:normal;font-size:40px;line-height:125%;font-family:Sans;letter-spacing:0px;word-spacing:0px;fill:#000000;fill-opacity:1;stroke:none;stroke-width:1px;stroke-linecap:butt;stroke-linejoin:miter;stroke-opacity:1"
       transform="scale(0.26458333)"><flowRegion
         id="flowRegion3709"><rect
           id="rect3711"
           width="442.85715"
           height="211.42857"
           x="-31.428572"
           y="-8.908886" /></flowRegion><flowPara
         id="flowPara3713" /></flowRoot>    <g
       id="g959">
      <path
         transform="matrix(0.26458333,0,0,0.26458333,-38.017826,216.83707)"
         d="m 165.97742,272.81802 q -0.12,0.76 -0.84,0.76 h -11.28 q -0.28,0 -0.36,0.32 l -0.44,3.52 q 0,0.32 0.28,0.32 h 6.92 q 0.32,0 0.48,0.2 0.2,0.2 0.16,0.56 l -0.6,4.88 q -0.12,0.76 -0.84,0.76 h -6.92 q -0.32,0 -0.32,0.32 l -1.24,9.92 q -0.04,0.36 -0.28,0.56 -0.2,0.2 -0.56,0.2 h -5.8 q -0.36,0 -0.52,-0.2 -0.16,-0.2 -0.12,-0.56 l 3.24,-26.48 q 0.12,-0.76 0.84,-0.76 h 18.16 q 0.32,0 0.48,0.2 0.2,0.2 0.16,0.56 z"
         style="font-style:italic;font-variant:normal;font-weight:900;font-stretch:normal;font-size:40px;line-height:125%;font-family:Barlow;-inkscape-font-specification:'Barlow, Heavy Italic';font-variant-ligatures:normal;font-variant-caps:normal;font-variant-numeric:normal;font-feature-settings:normal;text-align:start;letter-spacing:0px;word-spacing:0px;writing-mode:lr-tb;text-anchor:start;fill:#ff660f;fill-opacity:0.94117647;stroke:none;stroke-width:1px;stroke-linecap:butt;stroke-linejoin:miter;stroke-opacity:1;filter:url(#filter4876)"
         id="path4974"
         inkscape:connector-curvature="0" />
      <path
         transform="matrix(0.26458333,0,0,0.26458333,-38.017826,216.83707)"
         d="m 171.4618,273.49802 q -1.68,0 -2.72,-0.96 -1,-1 -1,-2.6 0,-2.12 1.36,-3.48 1.36,-1.36 3.4,-1.36 1.72,0 2.72,1 1,0.96 1,2.6 0,2.12 -1.36,3.48 -1.36,1.32 -3.4,1.32 z m -5.56,21.64 q -0.36,0 -0.52,-0.2 -0.16,-0.2 -0.12,-0.56 l 2.36,-19.28 q 0.04,-0.36 0.24,-0.56 0.24,-0.2 0.6,-0.2 h 5.8 q 0.36,0 0.52,0.2 0.16,0.2 0.12,0.56 l -2.36,19.28 q -0.04,0.36 -0.28,0.56 -0.2,0.2 -0.56,0.2 z"
         style="font-style:italic;font-variant:normal;font-weight:900;font-stretch:normal;font-size:40px;line-height:125%;font-family:Barlow;-inkscape-font-specification:'Barlow, Heavy Italic';font-variant-ligatures:normal;font-variant-caps:normal;font-variant-numeric:normal;font-feature-settings:normal;text-align:start;letter-spacing:0px;word-spacing:0px;writing-mode:lr-tb;text-anchor:start;fill:#ff660f;fill-opacity:0.94117647;stroke:none;stroke-width:1px;stroke-linecap:butt;stroke-linejoin:miter;stroke-opacity:1;filter:url(#filter4876)"
         id="path4976"
         inkscape:connector-curvature="0" />
      <path
         transform="matrix(0.26458333,0,0,0.26458333,-38.017826,216.83707)"
         d="m 190.01055,274.01802 q 2.68,0 4.36,1.68 1.68,1.64 1.68,4.56 0,0.36 -0.08,1.24 l -1.6,12.88 q -0.04,0.36 -0.28,0.56 -0.2,0.2 -0.52,0.2 h -5.84 q -0.36,0 -0.52,-0.2 -0.16,-0.2 -0.12,-0.56 l 1.36,-11.24 q 0.04,-0.16 0.04,-0.48 0,-1 -0.52,-1.6 -0.48,-0.6 -1.36,-0.6 -1,0 -1.68,0.76 -0.68,0.72 -0.84,1.92 l -1.4,11.24 q -0.04,0.36 -0.28,0.56 -0.2,0.2 -0.52,0.2 h -5.84 q -0.36,0 -0.52,-0.2 -0.16,-0.2 -0.12,-0.56 l 2.36,-19.28 q 0.12,-0.76 0.84,-0.76 h 5.8 q 0.36,0 0.52,0.2 0.16,0.2 0.12,0.56 l -0.12,1.04 v 0.08 q 0,0.16 0.08,0.2 0.12,0.04 0.24,-0.12 1.76,-2.28 4.76,-2.28 z"
         style="font-style:italic;font-variant:normal;font-weight:900;font-stretch:normal;font-size:40px;line-height:125%;font-family:Barlow;-inkscape-font-specification:'Barlow, Heavy Italic';font-variant-ligatures:normal;font-variant-caps:normal;font-variant-numeric:normal;font-feature-settings:normal;text-align:start;letter-spacing:0px;word-spacing:0px;writing-mode:lr-tb;text-anchor:start;fill:#ff660f;fill-opacity:0.94117647;stroke:none;stroke-width:1px;stroke-linecap:butt;stroke-linejoin:miter;stroke-opacity:1;filter:url(#filter4876)"
         id="path4978"
         inkscape:connector-curvature="0" />
      <path
         transform="matrix(0.26458333,0,0,0.26458333,-38.017826,216.83707)"
         d="m 212.0968,267.89802 q 0.04,-0.36 0.24,-0.56 0.24,-0.2 0.6,-0.2 h 5.8 q 0.36,0 0.52,0.2 0.16,0.2 0.12,0.56 l -3.24,26.48 q -0.04,0.36 -0.28,0.56 -0.2,0.2 -0.56,0.2 h -5.8 q -0.36,0 -0.52,-0.2 -0.16,-0.2 -0.12,-0.56 l 0.08,-0.84 v -0.08 q 0,-0.16 -0.12,-0.16 -0.08,0 -0.2,0.16 -1.76,2 -4.64,2 -2.56,0 -4.44,-1.68 -1.88,-1.72 -2.4,-4.64 -0.16,-1 -0.16,-2.24 0,-1.16 0.12,-2.24 0.4,-2.92 1.52,-5.12 1.2,-2.44 3.36,-3.96 2.2,-1.56 4.96,-1.56 2.72,0 3.84,1.68 0.12,0.12 0.2,0.12 0.16,0 0.16,-0.28 z m -3,19.76 q 0.72,-1.16 0.92,-2.88 0.08,-0.8 0.08,-1.16 0,-1.08 -0.32,-1.92 -0.52,-1.24 -1.88,-1.24 -1.4,0 -2.2,1.32 -0.68,1.12 -0.96,3 -0.08,0.72 -0.08,1.08 0,1 0.32,1.84 0.52,1.32 1.88,1.32 1.32,0 2.24,-1.36 z"
         style="font-style:italic;font-variant:normal;font-weight:900;font-stretch:normal;font-size:40px;line-height:125%;font-family:Barlow;-inkscape-font-specification:'Barlow, Heavy Italic';font-variant-ligatures:normal;font-variant-caps:normal;font-variant-numeric:normal;font-feature-settings:normal;text-align:start;letter-spacing:0px;word-spacing:0px;writing-mode:lr-tb;text-anchor:start;fill:#ff660f;fill-opacity:0.94117647;stroke:none;stroke-width:1px;stroke-linecap:butt;stroke-linejoin:miter;stroke-opacity:1;filter:url(#filter4876)"
         id="path4980"
         inkscape:connector-curvature="0" />
      <path
         transform="matrix(0.26458333,0,0,0.26458333,-38.017826,216.83707)"
         d="m 222.52805,295.45802 q -1.72,0 -2.8,-1.04 -1.04,-1.04 -1.04,-2.64 0,-1.24 0.72,-2.32 0.72,-1.08 1.84,-1.72 1.12,-0.64 2.28,-0.64 1.6,0 2.72,1.08 1.16,1.08 1.16,2.64 0,1.24 -0.68,2.32 -0.64,1.04 -1.76,1.68 -1.12,0.64 -2.44,0.64 z"
         style="font-style:italic;font-variant:normal;font-weight:900;font-stretch:normal;font-size:40px;line-height:125%;font-family:Barlow;-inkscape-font-specification:'Barlow, Heavy Italic';font-variant-ligatures:normal;font-variant-caps:normal;font-variant-numeric:normal;font-feature-settings:normal;text-align:start;letter-spacing:0px;word-spacing:0px;writing-mode:lr-tb;text-anchor:start;fill:#ff660f;fill-opacity:0.94117647;stroke:none;stroke-width:1px;stroke-linecap:butt;stroke-linejoin:miter;stroke-opacity:1;filter:url(#filter4876)"
         id="path4982"
         inkscape:connector-curvature="0" />
      <path
         transform="matrix(0.26458333,0,0,0.26458333,-38.017826,216.83707)"
         d="m 244.48242,267.13802 q 3.8,0 6,2.12 2.2,2.08 2.2,5.68 0,0.92 -0.08,1.4 -0.32,2.68 -1.8,4.72 -1.44,2.04 -3.76,3.16 -2.28,1.12 -5.12,1.12 h -4 q -0.28,0 -0.36,0.32 l -1.08,8.72 q -0.04,0.36 -0.28,0.56 -0.2,0.2 -0.56,0.2 h -5.8 q -0.36,0 -0.52,-0.2 -0.16,-0.2 -0.12,-0.56 l 3.24,-26.48 q 0.12,-0.76 0.84,-0.76 z m -2.68,12.2 q 1.52,0 2.52,-0.88 1.04,-0.92 1.04,-2.36 0,-1.16 -0.8,-1.84 -0.76,-0.68 -2.08,-0.68 h -3.12 q -0.28,0 -0.36,0.32 l -0.64,5.12 q 0,0.32 0.28,0.32 z"
         style="font-style:italic;font-variant:normal;font-weight:900;font-stretch:normal;font-size:40px;line-height:125%;font-family:Barlow;-inkscape-font-specification:'Barlow, Heavy Italic';font-variant-ligatures:normal;font-variant-caps:normal;font-variant-numeric:normal;font-feature-settings:normal;text-align:start;letter-spacing:0px;word-spacing:0px;writing-mode:lr-tb;text-anchor:start;fill:#ff660f;fill-opacity:0.94117647;stroke:none;stroke-width:1px;stroke-linecap:butt;stroke-linejoin:miter;stroke-opacity:1;filter:url(#filter4876)"
         id="path4984"
         inkscape:connector-curvature="0" />
      <path
         transform="matrix(0.26458333,0,0,0.26458333,-38.017826,216.83707)"
         d="m 253.12367,295.13802 q -0.36,0 -0.52,-0.2 -0.16,-0.2 -0.12,-0.56 l 3.24,-26.48 q 0.12,-0.76 0.84,-0.76 h 5.8 q 0.36,0 0.52,0.2 0.16,0.2 0.12,0.56 l -3.24,26.48 q -0.04,0.36 -0.28,0.56 -0.2,0.2 -0.56,0.2 z"
         style="font-style:italic;font-variant:normal;font-weight:900;font-stretch:normal;font-size:40px;line-height:125%;font-family:Barlow;-inkscape-font-specification:'Barlow, Heavy Italic';font-variant-ligatures:normal;font-variant-caps:normal;font-variant-numeric:normal;font-feature-settings:normal;text-align:start;letter-spacing:0px;word-spacing:0px;writing-mode:lr-tb;text-anchor:start;fill:#ff660f;fill-opacity:0.94117647;stroke:none;stroke-width:1px;stroke-linecap:butt;stroke-linejoin:miter;stroke-opacity:1;filter:url(#filter4876)"
         id="path4986"
         inkscape:connector-curvature="0" />
      <path
         transform="matrix(0.26458333,0,0,0.26458333,-38.017826,216.83707)"
         d="m 276.8418,275.09802 q 0.04,-0.36 0.24,-0.56 0.24,-0.2 0.6,-0.2 h 5.8 q 0.36,0 0.52,0.2 0.16,0.2 0.12,0.56 l -2.36,19.28 q -0.04,0.36 -0.28,0.56 -0.2,0.2 -0.56,0.2 h -5.8 q -0.36,0 -0.52,-0.2 -0.16,-0.2 -0.12,-0.56 l 0.08,-0.84 v -0.08 q 0,-0.16 -0.12,-0.16 -0.08,0 -0.2,0.16 -1.76,2 -4.64,2 -2.56,0 -4.44,-1.68 -1.88,-1.72 -2.4,-4.64 -0.16,-1 -0.16,-2.24 0,-1.16 0.12,-2.24 0.4,-2.92 1.52,-5.12 1.2,-2.44 3.36,-3.96 2.2,-1.56 4.96,-1.56 2.72,0 3.84,1.68 0.12,0.12 0.2,0.12 0.16,0 0.16,-0.28 z m -2.12,12.56 q 0.72,-1.16 0.92,-2.88 0.08,-0.8 0.08,-1.16 0,-1.08 -0.32,-1.92 -0.52,-1.24 -1.88,-1.24 -1.4,0 -2.2,1.32 -0.68,1.12 -0.96,3 -0.08,0.72 -0.08,1.08 0,1 0.32,1.84 0.52,1.32 1.88,1.32 1.32,0 2.24,-1.36 z"
         style="font-style:italic;font-variant:normal;font-weight:900;font-stretch:normal;font-size:40px;line-height:125%;font-family:Barlow;-inkscape-font-specification:'Barlow, Heavy Italic';font-variant-ligatures:normal;font-variant-caps:normal;font-variant-numeric:normal;font-feature-settings:normal;text-align:start;letter-spacing:0px;word-spacing:0px;writing-mode:lr-tb;text-anchor:start;fill:#ff660f;fill-opacity:0.94117647;stroke:none;stroke-width:1px;stroke-linecap:butt;stroke-linejoin:miter;stroke-opacity:1;filter:url(#filter4876)"
         id="path4988"
         inkscape:connector-curvature="0" />
      <path
         transform="matrix(0.26458333,0,0,0.26458333,-38.017826,216.83707)"
         d="m 293.8368,295.45802 q -3.28,0 -5.56,-1.64 -2.24,-1.68 -2.96,-4.64 -0.32,-1.16 -0.32,-2.76 0,-1.2 0.08,-1.8 0.32,-2.6 1.36,-4.52 1.4,-2.84 4.08,-4.44 2.68,-1.64 5.96,-1.64 3.32,0 5.64,1.72 2.32,1.68 2.92,4.24 0.16,0.76 0.16,1.36 0,0.72 -0.76,0.84 l -5.8,0.92 q -0.04,0 -0.12,0.04 -0.04,0 -0.12,-0.04 -0.56,0 -0.56,-0.48 l -0.04,-0.56 q -0.16,-0.68 -0.76,-1.12 -0.56,-0.48 -1.4,-0.48 -1.56,0 -2.36,1.44 -0.6,1.04 -0.84,2.76 -0.08,0.8 -0.08,1.16 0,0.88 0.2,1.6 0.44,1.6 2.04,1.6 1.64,0 2.44,-1.64 0.08,-0.12 0.08,-0.16 0.04,-0.08 0.04,-0.08 v 0 q 0.04,-0.16 0.32,-0.4 0.32,-0.28 0.6,-0.24 l 5.64,0.96 q 0.68,0.12 0.52,0.84 -0.16,0.6 -0.36,1.08 -1.36,2.92 -4.08,4.52 -2.68,1.56 -5.96,1.56 z"
         style="font-style:italic;font-variant:normal;font-weight:900;font-stretch:normal;font-size:40px;line-height:125%;font-family:Barlow;-inkscape-font-specification:'Barlow, Heavy Italic';font-variant-ligatures:normal;font-variant-caps:normal;font-variant-numeric:normal;font-feature-settings:normal;text-align:start;letter-spacing:0px;word-spacing:0px;writing-mode:lr-tb;text-anchor:start;fill:#ff660f;fill-opacity:0.94117647;stroke:none;stroke-width:1px;stroke-linecap:butt;stroke-linejoin:miter;stroke-opacity:1;filter:url(#filter4876)"
         id="path4990"
         inkscape:connector-curvature="0" />
      <path
         transform="matrix(0.26458333,0,0,0.26458333,-38.017826,216.83707)"
         d="m 316.5343,289.09802 q 1.16,0 2.2,-0.28 1.04,-0.32 1.76,-0.84 0.32,-0.24 0.56,-0.24 0.24,0 0.44,0.32 l 2.2,3.76 q 0.12,0.24 0.12,0.4 0,0.32 -0.36,0.64 -1.52,1.32 -3.6,1.96 -2.08,0.64 -4.36,0.64 -2.88,0 -5,-1.04 -2.12,-1.08 -3.28,-3.04 -1.24,-2.16 -1.24,-5.04 0,-0.88 0.12,-1.76 0.24,-1.76 0.84,-3.36 1.28,-3.24 4.16,-5.2 2.88,-2 6.32,-2 4,0 6.16,2.68 2.16,2.64 2.36,7.24 0.04,0.32 0.04,0.96 0,0.64 -0.04,0.96 -0.12,0.76 -0.84,0.76 h -11.52 q -0.32,0 -0.32,0.36 l 0.12,0.52 q 0.52,1.6 3.16,1.6 z m -0.08,-8.64 q -1.56,0 -2.4,1.6 l -0.16,0.32 -0.04,0.12 q 0,0.24 0.28,0.24 h 4.2 q 0.32,0 0.32,-0.24 0,-0.12 -0.04,-0.2 -0.04,-0.12 -0.04,-0.24 -0.48,-1.6 -2.12,-1.6 z"
         style="font-style:italic;font-variant:normal;font-weight:900;font-stretch:normal;font-size:40px;line-height:125%;font-family:Barlow;-inkscape-font-specification:'Barlow, Heavy Italic';font-variant-ligatures:normal;font-variant-caps:normal;font-variant-numeric:normal;font-feature-settings:normal;text-align:start;letter-spacing:0px;word-spacing:0px;writing-mode:lr-tb;text-anchor:start;fill:#ff660f;fill-opacity:0.94117647;stroke:none;stroke-width:1px;stroke-linecap:butt;stroke-linejoin:miter;stroke-opacity:1;filter:url(#filter4876)"
         id="path4992"
         inkscape:connector-curvature="0" />
      <path
         transform="matrix(0.26458333,0,0,0.26458333,-38.017826,216.83707)"
         d="m 329.71555,295.45802 q -1.72,0 -2.8,-1.04 -1.04,-1.04 -1.04,-2.64 0,-1.24 0.72,-2.32 0.72,-1.08 1.84,-1.72 1.12,-0.64 2.28,-0.64 1.6,0 2.72,1.08 1.16,1.08 1.16,2.64 0,1.24 -0.68,2.32 -0.64,1.04 -1.76,1.68 -1.12,0.64 -2.44,0.64 z"
         style="font-style:italic;font-variant:normal;font-weight:900;font-stretch:normal;font-size:40px;line-height:125%;font-family:Barlow;-inkscape-font-specification:'Barlow, Heavy Italic';font-variant-ligatures:normal;font-variant-caps:normal;font-variant-numeric:normal;font-feature-settings:normal;text-align:start;letter-spacing:0px;word-spacing:0px;writing-mode:lr-tb;text-anchor:start;fill:#ff660f;fill-opacity:0.94117647;stroke:none;stroke-width:1px;stroke-linecap:butt;stroke-linejoin:miter;stroke-opacity:1;filter:url(#filter4876)"
         id="path4994"
         inkscape:connector-curvature="0" />
      <path
         transform="matrix(0.26458333,0,0,0.26458333,-38.017826,216.83707)"
         d="m 346.82992,295.45802 q -4.36,0 -6.92,-2.32 -2.56,-2.32 -2.56,-6.28 0,-0.48 0.08,-1.44 l 2.16,-17.52 q 0.12,-0.76 0.84,-0.76 h 5.8 q 0.76,0 0.68,0.76 l -2.16,17.52 q -0.04,0.2 -0.04,0.64 0,1.36 0.76,2.16 0.8,0.8 2.16,0.8 1.48,0 2.52,-0.96 1.04,-1 1.24,-2.64 l 2.12,-17.52 q 0.04,-0.36 0.28,-0.56 0.24,-0.2 0.56,-0.2 h 5.84 q 0.32,0 0.48,0.2 0.2,0.2 0.16,0.56 l -2.16,17.52 q -0.36,3 -2,5.28 -1.6,2.28 -4.16,3.52 -2.52,1.24 -5.68,1.24 z"
         style="font-style:italic;font-variant:normal;font-weight:900;font-stretch:normal;font-size:40px;line-height:125%;font-family:Barlow;-inkscape-font-specification:'Barlow, Heavy Italic';font-variant-ligatures:normal;font-variant-caps:normal;font-variant-numeric:normal;font-feature-settings:normal;text-align:start;letter-spacing:0px;word-spacing:0px;writing-mode:lr-tb;text-anchor:start;fill:#ff660f;fill-opacity:0.94117647;stroke:none;stroke-width:1px;stroke-linecap:butt;stroke-linejoin:miter;stroke-opacity:1;filter:url(#filter4876)"
         id="path4996"
         inkscape:connector-curvature="0" />
      <path
         transform="matrix(0.26458333,0,0,0.26458333,-38.017826,216.83707)"
         d="m 374.77617,275.09802 q 0.04,-0.36 0.24,-0.56 0.24,-0.2 0.56,-0.2 h 5.84 q 0.36,0 0.52,0.2 0.16,0.2 0.12,0.56 l -2.12,17.32 q -0.72,5.72 -4.24,8.12 -3.48,2.44 -8.32,2.44 -1.68,0 -3.92,-0.36 -0.32,-0.08 -0.44,-0.32 -0.12,-0.2 -0.08,-0.52 l 0.88,-5.08 q 0.04,-0.4 0.28,-0.56 0.28,-0.16 0.64,-0.04 1.44,0.36 2.84,0.36 1.76,0 3,-0.68 1.28,-0.68 1.8,-2.12 l 0.04,-0.12 q 0,-0.16 -0.2,-0.2 -0.16,-0.04 -0.32,0.04 -1.44,1.04 -3.6,1.04 -6.2,0 -7.28,-5.2 -0.24,-1.2 -0.24,-2.4 0,-1 0.16,-2.28 0.36,-2.96 1.4,-5.04 1.24,-2.52 3.4,-4 2.2,-1.48 4.8,-1.48 2.56,0 3.84,1.52 0.12,0.16 0.2,0.12 0.12,-0.04 0.16,-0.24 z m -1.88,12.16 q 0.52,-1.08 0.72,-2.76 0.08,-0.88 0.08,-1.2 0,-0.84 -0.2,-1.4 -0.52,-1.44 -2.04,-1.44 -1.32,0 -2.2,1.4 -0.76,1.08 -0.96,2.76 -0.08,0.72 -0.08,1.04 0,0.88 0.24,1.56 0.52,1.4 2.08,1.4 1.52,0 2.36,-1.36 z"
         id="path4998"
         inkscape:connector-curvature="0"
         style="font-style:italic;font-variant:normal;font-weight:900;font-stretch:normal;font-size:medium;line-height:125%;font-family:Barlow;-inkscape-font-specification:'Barlow, Heavy Italic';font-variant-ligatures:normal;font-variant-caps:normal;font-variant-numeric:normal;font-feature-settings:normal;text-align:start;letter-spacing:0px;word-spacing:0px;writing-mode:lr-tb;text-anchor:start;fill:#ff660f;fill-opacity:0.94117647;stroke:none;stroke-width:1px;stroke-linecap:butt;stroke-linejoin:miter;stroke-opacity:1;filter:url(#filter4876)" />
    </g>
    <flowRoot
       xml:space="preserve"
       id="flowRoot3725"
       style="font-style:normal;font-weight:normal;font-size:40px;line-height:125%;font-family:Sans;letter-spacing:0px;word-spacing:0px;fill:#000000;fill-opacity:1;stroke:none;stroke-width:1px;stroke-linecap:butt;stroke-linejoin:miter;stroke-opacity:1"
       transform="scale(0.26458333)"><flowRegion
         id="flowRegion3727"><rect
           id="rect3729"
           width="357.14285"
           height="48.57143"
           x="125.71429"
           y="225.37683" /></flowRegion><flowPara
         id="flowPara3731" /></flowRoot>    <flowRoot
       xml:space="preserve"
       id="flowRoot3733"
       style="font-style:normal;font-weight:normal;font-size:40px;line-height:125%;font-family:Sans;letter-spacing:0px;word-spacing:0px;fill:#000000;fill-opacity:1;stroke:none;stroke-width:1px;stroke-linecap:butt;stroke-linejoin:miter;stroke-opacity:1"
       transform="scale(0.26458333)"><flowRegion
         id="flowRegion3735"><rect
           id="rect3737"
           width="297.14285"
           height="245.71428"
           x="120"
           y="185.37683" /></flowRegion><flowPara
         id="flowPara3739" /></flowRoot>    <flowRoot
       xml:space="preserve"
       id="flowRoot5001"
       style="font-style:normal;font-weight:normal;font-size:40px;line-height:125%;font-family:Sans;letter-spacing:0px;word-spacing:0px;fill:#000000;fill-opacity:1;stroke:none;stroke-width:1px;stroke-linecap:butt;stroke-linejoin:miter;stroke-opacity:1"
       transform="matrix(0.26458333,0,0,0.26458333,-6.3069987,285.97535)"><flowRegion
         id="flowRegion5003"><rect
           id="rect5005"
           width="284.41714"
           height="58.137375"
           x="10.259537"
           y="63.695179" /></flowRegion><flowPara
         id="flowPara5007" /></flowRoot>    <g
       aria-label="The smart way to find a Place"
       style="font-style:normal;font-variant:normal;font-weight:normal;font-stretch:normal;font-size:2.82222223px;line-height:125%;font-family:'Infinite Justice';-inkscape-font-specification:'Infinite Justice, Normal';font-variant-ligatures:normal;font-variant-caps:normal;font-variant-numeric:normal;font-feature-settings:normal;text-align:start;letter-spacing:0px;word-spacing:0px;writing-mode:lr-tb;text-anchor:start;opacity:0.91000001;fill:#000000;fill-opacity:1;stroke:none;stroke-width:0.26458332px;stroke-linecap:butt;stroke-linejoin:miter;stroke-opacity:1"
       id="text5019">
      <path
         d="M 8.6236031,296.14898 H 7.9070232 l -0.4161675,1.5503 H 6.6474963 l 0.4161676,-1.5503 H 6.347084 l 0.1129991,-0.42306 h 2.2765191 z"
         style="font-style:normal;font-variant:normal;font-weight:normal;font-stretch:normal;font-size:2.82222223px;font-family:'Infinite Justice';-inkscape-font-specification:'Infinite Justice, Normal';font-variant-ligatures:normal;font-variant-caps:normal;font-variant-numeric:normal;font-feature-settings:normal;text-align:start;writing-mode:lr-tb;text-anchor:start;stroke-width:0.26458332px"
         id="path858"
         inkscape:connector-curvature="0" />
      <path
         d="M 10.155982,297.69928 H 9.4518042 l 0.2687174,-1.00184 q 0.016537,-0.0592 0.016537,-0.10335 0,-0.13092 -0.1391819,-0.13092 -0.1874132,0 -0.2508029,0.23565 l -0.2687175,1.00046 h -0.705556 l 0.5291666,-1.97336 h 0.7055556 l -0.1267795,0.47543 q 0.1653646,-0.0661 0.4506185,-0.0661 0.5112525,0 0.5112525,0.3955 0,0.10197 -0.03583,0.23151 z"
         style="font-style:normal;font-variant:normal;font-weight:normal;font-stretch:normal;font-size:2.82222223px;font-family:'Infinite Justice';-inkscape-font-specification:'Infinite Justice, Normal';font-variant-ligatures:normal;font-variant-caps:normal;font-variant-numeric:normal;font-feature-settings:normal;text-align:start;writing-mode:lr-tb;text-anchor:start;stroke-width:0.26458332px"
         id="path860"
         inkscape:connector-curvature="0" />
      <path
         d="m 12.534475,297.02817 h -1.214051 l -0.03169,0.11851 q -0.01654,0.0593 -0.01654,0.10335 0,0.13092 0.139182,0.13092 0.184657,0 0.237023,-0.19293 h 0.821311 q -0.268718,0.52504 -1.146528,0.52504 -0.866786,0 -0.866786,-0.51401 0,-0.0951 0.0317,-0.21084 l 0.03307,-0.12816 q 0.194303,-0.72485 1.223697,-0.72485 0.868165,0 0.868165,0.50988 0,0.0992 -0.03307,0.21635 z m -0.767567,-0.27423 0.01516,-0.0551 q 0.01516,-0.0565 0.01516,-0.1006 0.0028,-0.13505 -0.137804,-0.13505 -0.186035,0 -0.249425,0.23565 l -0.01516,0.0551 z"
         style="font-style:normal;font-variant:normal;font-weight:normal;font-stretch:normal;font-size:2.82222223px;font-family:'Infinite Justice';-inkscape-font-specification:'Infinite Justice, Normal';font-variant-ligatures:normal;font-variant-caps:normal;font-variant-numeric:normal;font-feature-settings:normal;text-align:start;writing-mode:lr-tb;text-anchor:start;stroke-width:0.26458332px"
         id="path862"
         inkscape:connector-curvature="0" />
      <path
         d="m 15.619903,296.62854 h -0.788238 q 0.0083,-0.0303 0.0083,-0.0565 0,-0.10887 -0.155718,-0.10887 -0.228754,0 -0.228754,0.13367 0,0.0868 0.264583,0.13367 0.42168,0.0758 0.526411,0.12127 0.214974,0.0937 0.214974,0.27699 0,0.0482 -0.01378,0.10059 -0.129535,0.4837 -1.120345,0.4837 -0.909505,0 -0.883322,-0.49472 h 0.788237 q -0.0083,0.0289 -0.0083,0.0537 0,0.11162 0.170877,0.11162 0.239779,0 0.239779,-0.13367 0,-0.0854 -0.264584,-0.13229 -0.417545,-0.0744 -0.52641,-0.12126 -0.214974,-0.0923 -0.214974,-0.27699 0,-0.0469 0.01378,-0.1006 0.130914,-0.48507 1.121723,-0.48507 0.881945,0 0.855762,0.49472 z"
         style="font-style:normal;font-variant:normal;font-weight:normal;font-stretch:normal;font-size:2.82222223px;font-family:'Infinite Justice';-inkscape-font-specification:'Infinite Justice, Normal';font-variant-ligatures:normal;font-variant-caps:normal;font-variant-numeric:normal;font-feature-settings:normal;text-align:start;writing-mode:lr-tb;text-anchor:start;stroke-width:0.26458332px"
         id="path864"
         inkscape:connector-curvature="0" />
      <path
         d="M 18.358065,297.6979 H 17.65251 l 0.267339,-1.00046 q 0.01654,-0.0592 0.01654,-0.10335 0,-0.13092 -0.139181,-0.13092 -0.187414,0 -0.250803,0.23289 l -0.268718,1.00322 h -0.705555 l 0.268717,-1.00184 q 0.01516,-0.0592 0.01654,-0.10197 0,-0.1323 -0.139182,-0.1323 -0.186035,0 -0.249425,0.23565 l -0.268718,1.00046 h -0.705555 l 0.416167,-1.5503 h 0.705556 l -0.01378,0.0524 q 0.163987,-0.0661 0.450619,-0.0661 0.333485,0 0.446484,0.17501 0.216352,-0.17639 0.633898,-0.17639 0.509874,0 0.509874,0.3955 0,0.10198 -0.03583,0.23289 z"
         style="font-style:normal;font-variant:normal;font-weight:normal;font-stretch:normal;font-size:2.82222223px;font-family:'Infinite Justice';-inkscape-font-specification:'Infinite Justice, Normal';font-variant-ligatures:normal;font-variant-caps:normal;font-variant-numeric:normal;font-feature-settings:normal;text-align:start;writing-mode:lr-tb;text-anchor:start;stroke-width:0.26458332px"
         id="path866"
         inkscape:connector-curvature="0" />
      <path
         d="m 20.41272,297.69928 h -0.705556 l 0.01516,-0.0565 q -0.168121,0.0703 -0.367936,0.0703 -0.7593,0 -0.7593,-0.34589 0,-0.0482 0.01516,-0.10336 0.06752,-0.25355 0.333485,-0.36242 0.162609,-0.0661 0.515386,-0.0978 0.352778,-0.0317 0.516765,-0.1006 l 0.01102,-0.0413 q 0.0096,-0.0358 0.0096,-0.0648 0.0028,-0.12815 -0.173632,-0.12815 -0.216352,0 -0.27423,0.19292 h -0.741385 q 0.271474,-0.52641 1.105187,-0.52641 0.764811,0 0.766189,0.47405 0,0.0978 -0.03032,0.21221 z m -0.58291,-0.45751 0.05374,-0.2012 q -0.05788,0.0234 -0.186035,0.0386 -0.126779,0.0152 -0.187413,0.04 -0.09922,0.0413 -0.121267,0.12265 -0.0055,0.022 -0.0055,0.0413 0,0.10473 0.187414,0.10473 0.220486,0 0.259071,-0.14607 z"
         style="font-style:normal;font-variant:normal;font-weight:normal;font-stretch:normal;font-size:2.82222223px;font-family:'Infinite Justice';-inkscape-font-specification:'Infinite Justice, Normal';font-variant-ligatures:normal;font-variant-caps:normal;font-variant-numeric:normal;font-feature-settings:normal;text-align:start;writing-mode:lr-tb;text-anchor:start;stroke-width:0.26458332px"
         id="path868"
         inkscape:connector-curvature="0" />
      <path
         d="m 22.22484,296.49074 q -0.159852,-0.0276 -0.327973,-0.0276 -0.282498,0 -0.37207,0.33211 l -0.242535,0.904 h -0.705555 l 0.416167,-1.5503 h 0.705556 l -0.01378,0.0524 q 0.176389,-0.0661 0.366558,-0.0661 0.19017,0 0.26734,0.006 z"
         style="font-style:normal;font-variant:normal;font-weight:normal;font-stretch:normal;font-size:2.82222223px;font-family:'Infinite Justice';-inkscape-font-specification:'Infinite Justice, Normal';font-variant-ligatures:normal;font-variant-caps:normal;font-variant-numeric:normal;font-feature-settings:normal;text-align:start;writing-mode:lr-tb;text-anchor:start;stroke-width:0.26458332px"
         id="path870"
         inkscape:connector-curvature="0" />
      <path
         d="m 23.706231,296.57204 h -0.34451 l -0.30179,1.12724 h -0.705556 l 0.301791,-1.12724 h -0.34451 l 0.114377,-0.42306 h 0.34451 l 0.112999,-0.42306 h 0.705556 l -0.112999,0.42306 h 0.344509 z"
         style="font-style:normal;font-variant:normal;font-weight:normal;font-stretch:normal;font-size:2.82222223px;font-family:'Infinite Justice';-inkscape-font-specification:'Infinite Justice, Normal';font-variant-ligatures:normal;font-variant-caps:normal;font-variant-numeric:normal;font-feature-settings:normal;text-align:start;writing-mode:lr-tb;text-anchor:start;stroke-width:0.26458332px"
         id="path872"
         inkscape:connector-curvature="0" />
      <path
         d="m 27.397996,296.14898 -0.839226,1.54892 h -0.746896 l 0.02618,-0.57464 -0.28112,0.57602 H 24.81004 l -0.0083,-1.5503 h 0.705555 l -0.122645,0.82682 0.403765,-0.82682 h 0.622873 l -0.03996,0.82545 0.321083,-0.82545 z"
         style="font-style:normal;font-variant:normal;font-weight:normal;font-stretch:normal;font-size:2.82222223px;font-family:'Infinite Justice';-inkscape-font-specification:'Infinite Justice, Normal';font-variant-ligatures:normal;font-variant-caps:normal;font-variant-numeric:normal;font-feature-settings:normal;text-align:start;writing-mode:lr-tb;text-anchor:start;stroke-width:0.26458332px"
         id="path874"
         inkscape:connector-curvature="0" />
      <path
         d="m 29.011678,297.69928 h -0.705556 l 0.01516,-0.0565 q -0.168121,0.0703 -0.367936,0.0703 -0.759299,0 -0.759299,-0.34589 0,-0.0482 0.01516,-0.10336 0.06752,-0.25355 0.333485,-0.36242 0.162609,-0.0661 0.515386,-0.0978 0.352778,-0.0317 0.516765,-0.1006 l 0.01102,-0.0413 q 0.0096,-0.0358 0.0096,-0.0648 0.0028,-0.12815 -0.173632,-0.12815 -0.216352,0 -0.27423,0.19292 h -0.741385 q 0.271474,-0.52641 1.105187,-0.52641 0.764811,0 0.766189,0.47405 0,0.0978 -0.03032,0.21221 z m -0.58291,-0.45751 0.05374,-0.2012 q -0.05788,0.0234 -0.186035,0.0386 -0.126779,0.0152 -0.187413,0.04 -0.09922,0.0413 -0.121267,0.12265 -0.0055,0.022 -0.0055,0.0413 0,0.10473 0.187414,0.10473 0.220486,0 0.259071,-0.14607 z"
         style="font-style:normal;font-variant:normal;font-weight:normal;font-stretch:normal;font-size:2.82222223px;font-family:'Infinite Justice';-inkscape-font-specification:'Infinite Justice, Normal';font-variant-ligatures:normal;font-variant-caps:normal;font-variant-numeric:normal;font-feature-settings:normal;text-align:start;writing-mode:lr-tb;text-anchor:start;stroke-width:0.26458332px"
         id="path876"
         inkscape:connector-curvature="0" />
      <path
         d="m 31.318515,296.14898 -1.260905,2.05604 h -0.665592 l 0.304546,-0.50988 -0.132292,-1.54616 h 0.664215 l 0.04685,0.57051 0.338997,-0.57051 z"
         style="font-style:normal;font-variant:normal;font-weight:normal;font-stretch:normal;font-size:2.82222223px;font-family:'Infinite Justice';-inkscape-font-specification:'Infinite Justice, Normal';font-variant-ligatures:normal;font-variant-caps:normal;font-variant-numeric:normal;font-feature-settings:normal;text-align:start;writing-mode:lr-tb;text-anchor:start;stroke-width:0.26458332px"
         id="path878"
         inkscape:connector-curvature="0" />
      <path
         d="m 33.578498,296.57204 h -0.34451 l -0.30179,1.12724 h -0.705556 l 0.301791,-1.12724 h -0.34451 l 0.114377,-0.42306 h 0.34451 l 0.112999,-0.42306 h 0.705555 l -0.112999,0.42306 h 0.34451 z"
         style="font-style:normal;font-variant:normal;font-weight:normal;font-stretch:normal;font-size:2.82222223px;font-family:'Infinite Justice';-inkscape-font-specification:'Infinite Justice, Normal';font-variant-ligatures:normal;font-variant-caps:normal;font-variant-numeric:normal;font-feature-settings:normal;text-align:start;writing-mode:lr-tb;text-anchor:start;stroke-width:0.26458332px"
         id="path880"
         inkscape:connector-curvature="0" />
      <path
         d="m 35.637285,296.98683 q -0.194303,0.72623 -1.223698,0.72623 -0.872298,0 -0.866786,-0.51952 0.0014,-0.0951 0.03169,-0.20671 l 0.03307,-0.12678 q 0.194303,-0.72485 1.223698,-0.72485 0.866786,0 0.866786,0.51401 0,0.0965 -0.03169,0.21084 z m -0.886078,0.15985 0.119889,-0.44786 q 0.01516,-0.0593 0.01516,-0.10198 0,-0.13229 -0.139182,-0.13229 -0.186035,0 -0.248046,0.23427 l -0.11989,0.44786 q -0.01654,0.0593 -0.01654,0.10198 0,0.13229 0.139182,0.13229 0.186035,0 0.249425,-0.23427 z"
         style="font-style:normal;font-variant:normal;font-weight:normal;font-stretch:normal;font-size:2.82222223px;font-family:'Infinite Justice';-inkscape-font-specification:'Infinite Justice, Normal';font-variant-ligatures:normal;font-variant-caps:normal;font-variant-numeric:normal;font-feature-settings:normal;text-align:start;writing-mode:lr-tb;text-anchor:start;stroke-width:0.26458332px"
         id="path882"
         inkscape:connector-curvature="0" />
      <path
         d="m 38.368558,295.96708 h -0.155719 q -0.206705,0 -0.300412,0.1819 H 38.2404 l -0.114377,0.42306 h -0.344509 l -0.301791,1.12724 h -0.705555 l 0.30179,-1.12724 h -0.34451 l 0.114378,-0.42306 h 0.36518 q 0.261827,-0.54019 1.016992,-0.54019 h 0.235644 z"
         style="font-style:normal;font-variant:normal;font-weight:normal;font-stretch:normal;font-size:2.82222223px;font-family:'Infinite Justice';-inkscape-font-specification:'Infinite Justice, Normal';font-variant-ligatures:normal;font-variant-caps:normal;font-variant-numeric:normal;font-feature-settings:normal;text-align:start;writing-mode:lr-tb;text-anchor:start;stroke-width:0.26458332px"
         id="path884"
         inkscape:connector-curvature="0" />
      <path
         d="m 39.194004,296.04425 h -0.705555 l 0.08544,-0.31833 h 0.705556 z m -0.443728,1.65503 H 38.04472 l 0.416168,-1.5503 h 0.705555 z"
         style="font-style:normal;font-variant:normal;font-weight:normal;font-stretch:normal;font-size:2.82222223px;font-family:'Infinite Justice';-inkscape-font-specification:'Infinite Justice, Normal';font-variant-ligatures:normal;font-variant-caps:normal;font-variant-numeric:normal;font-feature-settings:normal;text-align:start;writing-mode:lr-tb;text-anchor:start;stroke-width:0.26458332px"
         id="path886"
         inkscape:connector-curvature="0" />
      <path
         d="m 40.69882,297.69928 h -0.705556 l 0.268718,-1.00184 q 0.01516,-0.0592 0.01654,-0.10197 0,-0.1323 -0.139181,-0.1323 -0.186036,0 -0.249425,0.23565 l -0.268718,1.00046 h -0.705555 l 0.416167,-1.5503 h 0.705556 l -0.01378,0.0524 q 0.165365,-0.0661 0.450619,-0.0661 0.511252,0 0.511252,0.3955 0,0.10197 -0.03583,0.23151 z"
         style="font-style:normal;font-variant:normal;font-weight:normal;font-stretch:normal;font-size:2.82222223px;font-family:'Infinite Justice';-inkscape-font-specification:'Infinite Justice, Normal';font-variant-ligatures:normal;font-variant-caps:normal;font-variant-numeric:normal;font-feature-settings:normal;text-align:start;writing-mode:lr-tb;text-anchor:start;stroke-width:0.26458332px"
         id="path888"
         inkscape:connector-curvature="0" />
      <path
         d="m 42.760365,297.69928 h -0.705556 l 0.01516,-0.0565 q -0.168121,0.0703 -0.355534,0.0703 -0.722092,0 -0.719336,-0.49059 0.0014,-0.10611 0.03583,-0.23564 l 0.03445,-0.12816 q 0.192925,-0.72347 1.070735,-0.72347 0.19017,0 0.321083,0.0661 l 0.12678,-0.47543 h 0.705555 z m -0.556728,-0.5526 0.11989,-0.44786 q 0.01516,-0.0593 0.01516,-0.10198 0,-0.13229 -0.139182,-0.13229 -0.186035,0 -0.248047,0.23427 l -0.119889,0.44786 q -0.01654,0.0593 -0.01654,0.10198 0,0.13229 0.139182,0.13229 0.186035,0 0.249426,-0.23427 z"
         style="font-style:normal;font-variant:normal;font-weight:normal;font-stretch:normal;font-size:2.82222223px;font-family:'Infinite Justice';-inkscape-font-specification:'Infinite Justice, Normal';font-variant-ligatures:normal;font-variant-caps:normal;font-variant-numeric:normal;font-feature-settings:normal;text-align:start;writing-mode:lr-tb;text-anchor:start;stroke-width:0.26458332px"
         id="path890"
         inkscape:connector-curvature="0" />
      <path
         d="m 45.691451,297.69928 h -0.705555 l 0.01516,-0.0565 q -0.168121,0.0703 -0.367936,0.0703 -0.759299,0 -0.759299,-0.34589 0,-0.0482 0.01516,-0.10336 0.06752,-0.25355 0.333486,-0.36242 0.162608,-0.0661 0.515386,-0.0978 0.352778,-0.0317 0.516764,-0.1006 l 0.01102,-0.0413 q 0.0096,-0.0358 0.0096,-0.0648 0.0028,-0.12815 -0.173633,-0.12815 -0.216352,0 -0.27423,0.19292 H 44.08599 q 0.271473,-0.52641 1.105186,-0.52641 0.764812,0 0.76619,0.47405 0,0.0978 -0.03032,0.21221 z m -0.58291,-0.45751 0.05374,-0.2012 q -0.05788,0.0234 -0.186036,0.0386 -0.126779,0.0152 -0.187413,0.04 -0.09922,0.0413 -0.121267,0.12265 -0.0055,0.022 -0.0055,0.0413 0,0.10473 0.187413,0.10473 0.220486,0 0.259071,-0.14607 z"
         style="font-style:normal;font-variant:normal;font-weight:normal;font-stretch:normal;font-size:2.82222223px;font-family:'Infinite Justice';-inkscape-font-specification:'Infinite Justice, Normal';font-variant-ligatures:normal;font-variant-caps:normal;font-variant-numeric:normal;font-feature-settings:normal;text-align:start;writing-mode:lr-tb;text-anchor:start;stroke-width:0.26458332px"
         id="path892"
         inkscape:connector-curvature="0" />
      <path
         d="m 49.143436,296.45491 q -0.14745,0.55121 -0.698665,0.55121 h -0.689019 l -0.186035,0.69316 h -0.84336 l 0.416168,-1.5503 h 0.71658 l -0.603581,-0.42306 h 1.532378 q 0.434082,0 0.434082,0.34176 0,0.0923 -0.03032,0.20946 z m -0.818555,-0.0896 q 0.0096,-0.0386 0.0096,-0.0689 0,-0.14745 -0.227377,-0.14745 h -0.121267 l -0.117133,0.43408 h 0.121267 q 0.275608,0 0.334863,-0.21773 z"
         style="font-style:normal;font-variant:normal;font-weight:normal;font-stretch:normal;font-size:2.82222223px;font-family:'Infinite Justice';-inkscape-font-specification:'Infinite Justice, Normal';font-variant-ligatures:normal;font-variant-caps:normal;font-variant-numeric:normal;font-feature-settings:normal;text-align:start;writing-mode:lr-tb;text-anchor:start;stroke-width:0.26458332px"
         id="path894"
         inkscape:connector-curvature="0" />
      <path
         d="m 49.680871,297.69928 h -0.705555 l 0.529166,-1.97336 h 0.705556 z"
         style="font-style:normal;font-variant:normal;font-weight:normal;font-stretch:normal;font-size:2.82222223px;font-family:'Infinite Justice';-inkscape-font-specification:'Infinite Justice, Normal';font-variant-ligatures:normal;font-variant-caps:normal;font-variant-numeric:normal;font-feature-settings:normal;text-align:start;writing-mode:lr-tb;text-anchor:start;stroke-width:0.26458332px"
         id="path896"
         inkscape:connector-curvature="0" />
      <path
         d="m 51.738284,297.69928 h -0.705555 l 0.01516,-0.0565 q -0.168121,0.0703 -0.367936,0.0703 -0.759299,0 -0.759299,-0.34589 0,-0.0482 0.01516,-0.10336 0.06752,-0.25355 0.333486,-0.36242 0.162608,-0.0661 0.515386,-0.0978 0.352778,-0.0317 0.516764,-0.1006 l 0.01102,-0.0413 q 0.0096,-0.0358 0.0096,-0.0648 0.0028,-0.12815 -0.173633,-0.12815 -0.216352,0 -0.27423,0.19292 H 50.13287 q 0.271473,-0.52641 1.105186,-0.52641 0.764812,0 0.76619,0.47405 0,0.0978 -0.03032,0.21221 z m -0.58291,-0.45751 0.05374,-0.2012 q -0.05788,0.0234 -0.186036,0.0386 -0.126779,0.0152 -0.187413,0.04 -0.09922,0.0413 -0.121267,0.12265 -0.0055,0.022 -0.0055,0.0413 0,0.10473 0.187413,0.10473 0.220486,0 0.259071,-0.14607 z"
         style="font-style:normal;font-variant:normal;font-weight:normal;font-stretch:normal;font-size:2.82222223px;font-family:'Infinite Justice';-inkscape-font-specification:'Infinite Justice, Normal';font-variant-ligatures:normal;font-variant-caps:normal;font-variant-numeric:normal;font-feature-settings:normal;text-align:start;writing-mode:lr-tb;text-anchor:start;stroke-width:0.26458332px"
         id="path898"
         inkscape:connector-curvature="0" />
      <path
         d="m 54.068548,297.14668 q -0.257693,0.56638 -1.167198,0.56638 -0.865408,0 -0.866786,-0.51263 0,-0.0978 0.03169,-0.21222 l 0.03307,-0.12816 q 0.194304,-0.72485 1.223698,-0.72485 0.866786,0 0.866786,0.51125 0,0.0262 -0.0014,0.0524 h -0.829579 q 0.01516,-0.0593 0.01516,-0.10335 0,-0.13092 -0.139182,-0.13092 -0.186035,0 -0.248047,0.23427 l -0.119889,0.44786 q -0.01654,0.0593 -0.01654,0.10198 0,0.13229 0.139182,0.13229 0.186035,0 0.249425,-0.23427 z"
         style="font-style:normal;font-variant:normal;font-weight:normal;font-stretch:normal;font-size:2.82222223px;font-family:'Infinite Justice';-inkscape-font-specification:'Infinite Justice, Normal';font-variant-ligatures:normal;font-variant-caps:normal;font-variant-numeric:normal;font-feature-settings:normal;text-align:start;writing-mode:lr-tb;text-anchor:start;stroke-width:0.26458332px"
         id="path900"
         inkscape:connector-curvature="0" />
      <path
         d="m 56.267896,297.02817 h -1.214052 l -0.03169,0.11851 q -0.01654,0.0593 -0.01654,0.10335 0,0.13092 0.139182,0.13092 0.184657,0 0.237022,-0.19293 h 0.821311 q -0.268718,0.52504 -1.146528,0.52504 -0.866786,0 -0.866786,-0.51401 0,-0.0951 0.03169,-0.21084 l 0.03307,-0.12816 q 0.194303,-0.72485 1.223698,-0.72485 0.868164,0 0.868164,0.50988 0,0.0992 -0.03307,0.21635 z m -0.767568,-0.27423 0.01516,-0.0551 q 0.01516,-0.0565 0.01516,-0.1006 0.0028,-0.13505 -0.137804,-0.13505 -0.186035,0 -0.249424,0.23565 l -0.01516,0.0551 z"
         style="font-style:normal;font-variant:normal;font-weight:normal;font-stretch:normal;font-size:2.82222223px;font-family:'Infinite Justice';-inkscape-font-specification:'Infinite Justice, Normal';font-variant-ligatures:normal;font-variant-caps:normal;font-variant-numeric:normal;font-feature-settings:normal;text-align:start;writing-mode:lr-tb;text-anchor:start;stroke-width:0.26458332px"
         id="path902"
         inkscape:connector-curvature="0" />
    </g>
  </g>
</svg>
