<?xml version="1.0" encoding="UTF-8" standalone="no"?>
<!-- Generator: Adobe Illustrator 22.0.1, SVG Export Plug-In . SVG Version: 6.00 Build 0)  -->

<svg
   xmlns:dc="http://purl.org/dc/elements/1.1/"
   xmlns:cc="http://creativecommons.org/ns#"
   xmlns:rdf="http://www.w3.org/1999/02/22-rdf-syntax-ns#"
   xmlns:svg="http://www.w3.org/2000/svg"
   xmlns="http://www.w3.org/2000/svg"
   xmlns:xlink="http://www.w3.org/1999/xlink"
   xmlns:sodipodi="http://sodipodi.sourceforge.net/DTD/sodipodi-0.dtd"
   xmlns:inkscape="http://www.inkscape.org/namespaces/inkscape"
   version="1.1"
   id="Layer_1"
   x="0px"
   y="0px"
   viewBox="0 0 164 118.50041"
   xml:space="preserve"
   inkscape:version="0.92.2 5c3e80d, 2017-08-06"
   width="164"
   height="118.5004"
   sodipodi:docname="LogoRolandWhiteYellow.svg"><style
     type="text/css"
     id="style445">
  .HCst0{fill:#F7EC32;}
  .HCst1{fill:url(#HCSVGID_1_);}
  .HCst2{fill:url(#HCSVGID_2_);}
  .HCst3{fill:url(#HCSVGID_3_);}
  .HCst4{fill:url(#HCSVGID_4_);}
  .HCst5{fill:url(#HCSVGID_5_);}
  .HCst6{fill:url(#HCSVGID_6_);}
</style><linearGradient
     id="HCSVGID_1_"
     gradientUnits="userSpaceOnUse"
     x1="64.834396"
     y1="-5.2480001"
     x2="136.9819"
     y2="141.9342"
     gradientTransform="translate(0,52)"><stop
       offset="0"
       style="stop-color:#FF0000"
       id="stop451" /><stop
       offset="0.4268"
       style="stop-color:#FFFF36"
       id="stop453" /></linearGradient><linearGradient
     id="HCSVGID_2_"
     gradientUnits="userSpaceOnUse"
     x1="121.4001"
     y1="53.162399"
     x2="121.4001"
     y2="60.002701"
     gradientTransform="translate(0,52)"><stop
       offset="0.2267"
       style="stop-color:#FFFF00"
       id="stop458" /><stop
       offset="1"
       style="stop-color:#FFFFFF"
       id="stop460" /></linearGradient><linearGradient
     id="HCSVGID_3_"
     gradientUnits="userSpaceOnUse"
     x1="30.415501"
     y1="45.407902"
     x2="30.415501"
     y2="52.248199"
     gradientTransform="translate(0,52)"><stop
       offset="0.2267"
       style="stop-color:#FF6F00"
       id="stop465" /><stop
       offset="1"
       style="stop-color:#FFFFFF"
       id="stop467" /></linearGradient><linearGradient
     id="HCSVGID_4_"
     gradientUnits="userSpaceOnUse"
     x1="38.819801"
     y1="60.439499"
     x2="38.819801"
     y2="66.376701"
     gradientTransform="translate(0,52)"><stop
       offset="0.2267"
       style="stop-color:#FFFF00"
       id="stop472" /><stop
       offset="1"
       style="stop-color:#FFFFFF"
       id="stop474" /></linearGradient><linearGradient
     id="HCSVGID_5_"
     gradientUnits="userSpaceOnUse"
     x1="128.3064"
     y1="44.916599"
     x2="128.3064"
     y2="51.756901"
     gradientTransform="translate(0,52)"><stop
       offset="0.2267"
       style="stop-color:#FFFF00"
       id="stop479" /><stop
       offset="1"
       style="stop-color:#FFFFFF"
       id="stop481" /></linearGradient><linearGradient
     id="HCSVGID_6_"
     gradientUnits="userSpaceOnUse"
     x1="108.54"
     y1="44.359402"
     x2="108.54"
     y2="50.741402"
     gradientTransform="translate(0,52)"><stop
       offset="0.2267"
       style="stop-color:#FFFF00"
       id="stop486" /><stop
       offset="1"
       style="stop-color:#FFFFFF"
       id="stop488" /></linearGradient><metadata
     id="metadata190"><rdf:RDF><cc:Work
         rdf:about=""><dc:format>image/svg+xml</dc:format><dc:type
           rdf:resource="http://purl.org/dc/dcmitype/StillImage" /><dc:title></dc:title></cc:Work></rdf:RDF></metadata><defs
     id="defs188"><linearGradient
       y2="99.599602"
       x2="97.262199"
       y1="99.599602"
       x1="62.1618"
       gradientUnits="userSpaceOnUse"
       id="SVGID_1_"><stop
         id="stop70"
         style="stop-color:#6A4E36"
         offset="1.237624e-02" /><stop
         id="stop72"
         style="stop-color:#E7CCB2"
         offset="1" /></linearGradient><linearGradient
       y2="65.408997"
       x2="98.049202"
       y1="65.408997"
       x1="61.006199"
       gradientUnits="userSpaceOnUse"
       id="SVGID_2_"><stop
         id="stop77"
         style="stop-color:#6A4E36"
         offset="1.237624e-02" /><stop
         id="stop79"
         style="stop-color:#E7CCB2"
         offset="1" /></linearGradient><linearGradient
       y2="91.771698"
       x2="161.9213"
       y1="91.771698"
       x1="0"
       gradientUnits="userSpaceOnUse"
       id="SVGID_3_"><stop
         id="stop84"
         style="stop-color:#58402A"
         offset="0.2401" /><stop
         id="stop86"
         style="stop-color:#E7CCB2"
         offset="1" /></linearGradient><linearGradient
       y2="110.9434"
       x2="119.51"
       y1="104.1863"
       x1="119.51"
       gradientUnits="userSpaceOnUse"
       id="SVGID_4_"><stop
         id="stop91"
         style="stop-color:#F5EA14"
         offset="0.2267" /><stop
         id="stop93"
         style="stop-color:#FFFFFF"
         offset="1" /></linearGradient><linearGradient
       y2="103.2832"
       x2="29.631701"
       y1="96.5261"
       x1="29.631701"
       gradientUnits="userSpaceOnUse"
       id="SVGID_5_"><stop
         id="stop98"
         style="stop-color:#F27021"
         offset="0.2267" /><stop
         id="stop100"
         style="stop-color:#FFFFFF"
         offset="1" /></linearGradient><linearGradient
       y2="117.2399"
       x2="37.9338"
       y1="111.3749"
       x1="37.9338"
       gradientUnits="userSpaceOnUse"
       id="SVGID_6_"><stop
         id="stop105"
         style="stop-color:#F5EA14"
         offset="0.2267" /><stop
         id="stop107"
         style="stop-color:#FFFFFF"
         offset="1" /></linearGradient><linearGradient
       y2="102.7979"
       x2="126.3324"
       y1="96.040703"
       x1="126.3324"
       gradientUnits="userSpaceOnUse"
       id="SVGID_7_"><stop
         id="stop112"
         style="stop-color:#F5EA14"
         offset="0.2267" /><stop
         id="stop114"
         style="stop-color:#FFFFFF"
         offset="1" /></linearGradient><linearGradient
       y2="101.7947"
       x2="106.8063"
       y1="95.490303"
       x1="106.8063"
       gradientUnits="userSpaceOnUse"
       id="SVGID_8_"><stop
         id="stop119"
         style="stop-color:#F5EA14"
         offset="0.2267" /><stop
         id="stop121"
         style="stop-color:#FFFFFF"
         offset="1" /></linearGradient><radialGradient
       gradientUnits="userSpaceOnUse"
       r="29.555099"
       cy="29.0714"
       cx="81.2659"
       id="SVGID_9_"><stop
         id="stop126"
         style="stop-color:#E9214F"
         offset="0" /><stop
         id="stop128"
         style="stop-color:#F9D2D2"
         offset="0.6645" /></radialGradient><radialGradient
       gradientUnits="userSpaceOnUse"
       r="29.555099"
       cy="29.0714"
       cx="81.2659"
       id="SVGID_10_"><stop
         id="stop133"
         style="stop-color:#E9214F"
         offset="0" /><stop
         id="stop135"
         style="stop-color:#F9D2D2"
         offset="0.6645" /></radialGradient><radialGradient
       gradientUnits="userSpaceOnUse"
       r="7.4510002"
       cy="16.2202"
       cx="69.716103"
       id="SVGID_11_"><stop
         id="stop148"
         style="stop-color:#90785A"
         offset="0" /><stop
         id="stop150"
         style="stop-color:#58402A"
         offset="1" /></radialGradient><radialGradient
       inkscape:collect="always"
       xlink:href="#SVGID_11_"
       id="radialGradient3217"
       gradientUnits="userSpaceOnUse"
       cx="69.716103"
       cy="16.2202"
       r="7.4510002" /><radialGradient
       inkscape:collect="always"
       xlink:href="#SVGID_10_"
       id="radialGradient3224"
       gradientUnits="userSpaceOnUse"
       cx="81.2659"
       cy="29.0714"
       r="29.555099" /><radialGradient
       inkscape:collect="always"
       xlink:href="#SVGID_9_"
       id="radialGradient3227"
       gradientUnits="userSpaceOnUse"
       cx="81.2659"
       cy="29.0714"
       r="29.555099" /><linearGradient
       inkscape:collect="always"
       xlink:href="#SVGID_8_"
       id="linearGradient3230"
       gradientUnits="userSpaceOnUse"
       x1="106.8063"
       y1="95.490303"
       x2="106.8063"
       y2="101.7947" /><linearGradient
       inkscape:collect="always"
       xlink:href="#SVGID_7_"
       id="linearGradient3233"
       gradientUnits="userSpaceOnUse"
       x1="126.3324"
       y1="96.040703"
       x2="126.3324"
       y2="102.7979" /><linearGradient
       inkscape:collect="always"
       xlink:href="#SVGID_6_"
       id="linearGradient3236"
       gradientUnits="userSpaceOnUse"
       x1="37.9338"
       y1="111.3749"
       x2="37.9338"
       y2="117.2399" /><linearGradient
       inkscape:collect="always"
       xlink:href="#SVGID_5_"
       id="linearGradient3239"
       gradientUnits="userSpaceOnUse"
       x1="29.631701"
       y1="96.5261"
       x2="29.631701"
       y2="103.2832" /><linearGradient
       inkscape:collect="always"
       xlink:href="#SVGID_4_"
       id="linearGradient3242"
       gradientUnits="userSpaceOnUse"
       x1="119.51"
       y1="104.1863"
       x2="119.51"
       y2="110.9434" /><linearGradient
       inkscape:collect="always"
       xlink:href="#SVGID_3_"
       id="linearGradient3245"
       gradientUnits="userSpaceOnUse"
       x1="0"
       y1="91.771698"
       x2="161.9213"
       y2="91.771698"
       gradientTransform="translate(-1.9445437,1.767767)" /><linearGradient
       inkscape:collect="always"
       xlink:href="#SVGID_2_"
       id="linearGradient3248"
       gradientUnits="userSpaceOnUse"
       x1="61.006199"
       y1="65.408997"
       x2="98.049202"
       y2="65.408997"
       gradientTransform="translate(-1.9445437,1.767767)" /><linearGradient
       inkscape:collect="always"
       xlink:href="#SVGID_1_"
       id="linearGradient3251"
       gradientUnits="userSpaceOnUse"
       x1="62.1618"
       y1="99.599602"
       x2="97.262199"
       y2="99.599602"
       gradientTransform="translate(-1.9445437,1.767767)" /><radialGradient
       inkscape:collect="always"
       xlink:href="#SVGID_9_"
       id="radialGradient4130"
       gradientUnits="userSpaceOnUse"
       cx="81.2659"
       cy="29.0714"
       r="29.555099"
       gradientTransform="translate(0,-1.3374384)" /><radialGradient
       inkscape:collect="always"
       xlink:href="#SVGID_10_"
       id="radialGradient4132"
       gradientUnits="userSpaceOnUse"
       cx="81.2659"
       cy="29.0714"
       r="29.555099"
       gradientTransform="translate(0,-1.3374384)" /><radialGradient
       inkscape:collect="always"
       xlink:href="#SVGID_11_"
       id="radialGradient4134"
       gradientUnits="userSpaceOnUse"
       cx="69.716103"
       cy="16.2202"
       r="7.4510002"
       gradientTransform="translate(0,-1.3374384)" /></defs><sodipodi:namedview
     pagecolor="#ffffff"
     bordercolor="#666666"
     borderopacity="1"
     objecttolerance="10"
     gridtolerance="10"
     guidetolerance="10"
     inkscape:pageopacity="0"
     inkscape:pageshadow="2"
     inkscape:window-width="1601"
     inkscape:window-height="904"
     id="namedview186"
     showgrid="false"
     inkscape:zoom="4.93"
     inkscape:cx="68.616514"
     inkscape:cy="53.774258"
     inkscape:window-x="313"
     inkscape:window-y="114"
     inkscape:window-maximized="0"
     inkscape:current-layer="Layer_1"
     fit-margin-top="0"
     fit-margin-left="0"
     fit-margin-right="0"
     fit-margin-bottom="0" /><style
     type="text/css"
     id="style3">
	.st0{fill:#58402A;}
	.st1{fill:#E7CCB2;}
	.st2{fill:#F1DEC5;}
	.st3{fill:none;}
	.st4{fill:#B2B3B4;}
	.st5{fill:#90785A;}
	.st6{fill:#D8C1AA;}
	.st7{fill:#BC936D;}
	.st8{fill:#6A4E36;}
	.st9{fill:url(#SVGID_1_);}
	.st10{fill:url(#SVGID_2_);}
	.st11{fill:url(#SVGID_3_);}
	.st12{fill:url(#SVGID_4_);}
	.st13{fill:url(#SVGID_5_);}
	.st14{fill:url(#SVGID_6_);}
	.st15{fill:url(#SVGID_7_);}
	.st16{fill:url(#SVGID_8_);}
	.st17{fill:url(#SVGID_9_);}
	.st18{fill:url(#SVGID_10_);}
	.st19{fill:#D74741;}
	.st20{fill:url(#SVGID_11_);}
</style><polygon
     style="fill:none"
     id="polygon29"
     points=""
     class="st3"
     transform="translate(0,-1.9370363)" /><g
     id="g2097"
     transform="translate(0,-0.59959791)"><path
       sodipodi:nodetypes="cscccacsccccccccccc"
       inkscape:connector-curvature="0"
       id="path1137"
       d="m 117.75176,86.417846 c 0,0 -0.2488,4.030139 -1.97656,6.409778 C 109.94938,100.8515 92.679614,75.440987 92.679614,75.440987 l -32.057417,1.496845 -0.249474,7.234747 c 0,0 -7.007494,-2.923915 -10.072723,-5.110017 C 43.92527,74.516144 33.429524,62.71781 33.429524,62.71781 c 0,0 -6.267044,-3.625292 -8.981066,-5.987377 -2.552232,-2.221275 -2.637066,-9.569941 -2.637066,-9.569941 L 24.573195,35.649874 42.410591,25.920386 55.88219,10.951942 62.493253,4.5903537 79.582226,4.9645648 92,12.162562 l 0.4,0.9 2.170104,10.372602 2.523645,1.821148 z"
       style="fill:#ffffff;fill-opacity:1;fill-rule:evenodd;stroke:none;stroke-width:0.30199999;stroke-linecap:butt;stroke-linejoin:miter;stroke-miterlimit:4;stroke-dasharray:none;stroke-opacity:1" /><path
       sodipodi:nodetypes="ccccccccc"
       class="st0"
       d="m 81.7,26.862562 c 0,0 -1.6,-0.7 -2.2,1 -0.4,1.1 -1.720971,4.134835 -5.6,5.9 -7.116002,2.230239 -16.37238,1.25407 -20.013864,-4.076777 C 53.534061,29.300081 53.157574,28.254206 52.6,27.362562 c 0,0 9.4,4.4 15.9,-3.7 0,0 -6.1,-3.3 -5.8,-8.8 0,0 0.3,5.4 6.2,7.2 6.3,2 13.4,-0.2 12.8,4.8 z"
       id="path7"
       inkscape:connector-curvature="0"
       style="fill:#58402a" /><path
       sodipodi:nodetypes="cccccccc"
       class="st1"
       d="m 77.2,69.362562 c -2.6,11.3 22.2,18.7 22.2,18.7 l 8.93024,10.765157 11.00468,-0.767459 c -0.1,-5.2 -3.23492,-12.797698 -8.03492,-21.097698 0,0 0.6,-3.6 -1.5,-9.5 l -6.8,-8.6 c 0,0.1 -18.4,-20.7 -25.8,10.5 z"
       id="path9"
       inkscape:connector-curvature="0"
       style="fill:#e7ccb2" /><path
       class="st2"
       d="m 61.2,87.262562 v 0 l 3.2,-5.1 -10,-14 -10.2,-0.3 c 1.2,2 2.6,4 4,5.8 4.1,5.2 8.1,9.1 13,13.6 z"
       id="path11"
       inkscape:connector-curvature="0"
       style="fill:#f1dec5" /><path
       class="st3"
       d="m 84.6,9.6625616 c 0.2,0.2 0.4,0.3 0.6,0.5000004 C 85,9.9625616 84.8,9.8625616 84.6,9.6625616 Z"
       id="path13"
       inkscape:connector-curvature="0"
       style="fill:none" /><path
       class="st3"
       d="m 59.3,13.062562 c 0.1,0.7 0.3,1.4 0.5,2 -0.2,-0.6 -0.4,-1.3 -0.5,-2 0,0 0,0 0,0 z"
       id="path15"
       inkscape:connector-curvature="0"
       style="fill:none" /><path
       class="st3"
       d="m 74.8,5.9625616 c 2,0.3 4,0.8 5.7,1.5 -1.6,-0.7 -3.5,-1.2 -5.7,-1.5 z"
       id="path17"
       inkscape:connector-curvature="0"
       style="fill:none" /><path
       class="st3"
       d="m 60.2,9.0625616 c 0.1,-0.1 0.1,-0.2 0.2,-0.4 -0.1,0.1 -0.1,0.2 -0.2,0.4 z"
       id="path19"
       inkscape:connector-curvature="0"
       style="fill:none" /><path
       class="st3"
       d="m 59.5,10.462562 c 0,-0.1 0,-0.3 0.1,-0.4 -0.1,0.1 -0.1,0.3 -0.1,0.4 z"
       id="path21"
       inkscape:connector-curvature="0"
       style="fill:none" /><path
       class="st3"
       d="m 59.2,11.662562 c 0,0 0,-0.1 0,-0.1 0,0 0,0.1 0,0.1 z"
       id="path23"
       inkscape:connector-curvature="0"
       style="fill:none" /><path
       class="st3"
       d="m 80.6,7.4625616 c 0.9,0.3 1.6,0.8 2.3,1.2 -0.6,-0.4 -1.4,-0.8 -2.3,-1.2 z"
       id="path25"
       inkscape:connector-curvature="0"
       style="fill:none" /><path
       class="st3"
       d="m 88.5,13.362562 c -0.2,-0.2 -0.4,-0.5 -0.7,-0.8 0.3,0.3 0.6,0.6 0.7,0.8 z"
       id="path27"
       inkscape:connector-curvature="0"
       style="fill:none" /><path
       class="st3"
       d="m 86.6,11.362562 c 0.2,0.2 0.5,0.5 0.7,0.7 -0.2,-0.3 -0.4,-0.5 -0.7,-0.7 z"
       id="path31"
       inkscape:connector-curvature="0"
       style="fill:none" /><path
       class="st4"
       d="m 60.7,16.962562 c 0.4,0.7 0.7,1.1 0.7,1.1 0,0 -0.4,-0.6 -0.9,-1.5 0,0.1 0.1,0.3 0.2,0.4 z"
       id="path33"
       inkscape:connector-curvature="0"
       style="fill:#b2b3b4" /><path
       class="st4"
       d="m 60.5,16.562562 c -0.2,-0.4 -0.5,-0.9 -0.7,-1.5 0.2,0.6 0.5,1 0.7,1.5 z"
       id="path35"
       inkscape:connector-curvature="0"
       style="fill:#b2b3b4" /><path
       class="st4"
       d="m 59.2,11.562562 c 0,-0.4 0.1,-0.7 0.2,-1.1 0,0.4 -0.1,0.7 -0.2,1.1 z"
       id="path37"
       inkscape:connector-curvature="0"
       style="fill:#b2b3b4" /><path
       class="st4"
       d="m 59.3,13.062562 c 0,0 0,0 0,0 -0.1,-0.4 -0.1,-0.9 0,-1.3 -0.1,0.4 -0.1,0.8 0,1.3 z"
       id="path39"
       inkscape:connector-curvature="0"
       style="fill:#b2b3b4" /><path
       class="st4"
       d="m 83,8.6625616 c 0.6,0.3 1.1,0.7 1.6,1 -0.5,-0.3 -1,-0.6 -1.6,-1 z"
       id="path41"
       inkscape:connector-curvature="0"
       style="fill:#b2b3b4" /><path
       class="st4"
       d="m 85.2,10.162562 c 0.5,0.4 1,0.8 1.4,1.2 -0.4,-0.4 -0.9,-0.8 -1.4,-1.2 z"
       id="path43"
       inkscape:connector-curvature="0"
       style="fill:#b2b3b4" /><path
       class="st4"
       d="m 87.9,12.562562 c -0.2,-0.2 -0.4,-0.4 -0.6,-0.6 0.2,0.2 0.4,0.4 0.6,0.6 z"
       id="path45"
       inkscape:connector-curvature="0"
       style="fill:#b2b3b4" /><path
       class="st4"
       d="m 59.6,10.062562 c 0.1,-0.4000004 0.4,-0.7000004 0.6,-1.1000004 -0.3,0.4 -0.5,0.8 -0.6,1.1000004 z"
       id="path47"
       inkscape:connector-curvature="0"
       style="fill:#b2b3b4" /><path
       class="st4"
       d="m 60.4,8.6625616 c 0.4,-0.5 0.8,-0.9 1.4,-1.3 -0.6,0.4 -1.1,0.9 -1.4,1.3 z"
       id="path49"
       inkscape:connector-curvature="0"
       style="fill:#b2b3b4" /><path
       class="st4"
       d="m 80.6,7.4625616 c 0,0 0,0 0,0 0,0 0,0 0,0 0,0 0,0 0,0 z"
       id="path51"
       inkscape:connector-curvature="0"
       style="fill:#b2b3b4" /><path
       class="st1"
       d="m 61.8,58.462562 c 2.4,-12.7 26,-13.2 18.2,-26.9 -0.9,1.1 -2,2.2 -3.8,3.2 -5,2.7 -14.3,3 -22.2,-1.9 -0.5,-0.3 -1,-0.1 -1.3,0.4 -1.1,2.2 -4.6,7.1 -13.4,3.3 -7.5,-3.2 -5,14.1 3.6,29.1 H 58 l 10.4,11.9 c -1.9,-5.9 -7.5,-14.5 -6.6,-19.1 z"
       id="path53"
       inkscape:connector-curvature="0"
       style="fill:#e7ccb2" /><path
       class="st5"
       d="m 87.8,12.562562 c -0.2,-0.2 -0.4,-0.4 -0.6,-0.6 -0.2,-0.2 -0.4,-0.4 -0.7,-0.7 -0.4,-0.4 -0.9,-0.8 -1.4,-1.2 -0.2,-0.2000004 -0.4,-0.3000004 -0.6,-0.5000004 -0.4,-0.3 -0.8,-0.6 -1.3,-0.8 v 0 c -0.1,-0.1 -0.2,-0.1 -0.3,-0.2 -0.7,-0.4 -1.5,-0.8 -2.3,-1.2 0,0 0,0 0,0 0,0 -0.1,0 -0.1,0 -1.6,-0.7 -3.5,-1.2 -5.7,-1.5 -2.7,-0.5 -5.5,-0.6 -8,-0.3 -2,0.3 -3.7,0.8 -5.1,1.7 -0.6,0.4 -1,0.8 -1.4,1.3 -0.1,0.1 -0.1,0.2 -0.2,0.4 -0.2,0.3 -0.5,0.7 -0.6,1.1000004 0,0.1 0,0.3 -0.1,0.4 -0.1,0.4 -0.2,0.7 -0.2,1.1 0,0 0,0.1 0,0.1 0,0.4 0,0.9 0,1.3 0.1,0.7 0.3,1.4 0.5,2 0.2,0.6 0.4,1.1 0.7,1.5 0,0 0,0 0,0 0.5,0.9 0.9,1.5 0.9,1.5 -0.7,-1.1 -1,-4 0.1,-6.1 1.4,-2.5000004 4.8,-4.0000004 9.3,-3.0000004 7.1,1.5000004 5.3,11.3000004 5.3,11.3000004 0,0 4.6,-4.2 9.9,-3.2 0,0 0.8,-2.2 2.6,-3.7 -0.2,-0.1 -0.5,-0.4 -0.7,-0.7 z"
       id="path55"
       inkscape:connector-curvature="0"
       style="fill:#90785a" /><path
       sodipodi:nodetypes="cccccccccccccsccccsccccccscccccccccsscc"
       class="st6"
       d="m 82.5,3.4625616 c -3.1,-1.4 -7.5,-2.3 -12.4,-2.7 -17.5,-1.3 -23.6,5.1 -30.1,22.0000004 0,0 -13.371922,1.703856 -17.344649,14.29885 -0.727457,3.016946 -1.288608,6.329561 -0.843959,10.09908 C 23.055581,40.447153 33.2,30.862562 33,38.562562 c 0.2,0 0.8,-7.6 6,-4.3 0,0 9.3,3.8 11.5,-3 0,0 -0.6,-19.4 10.9,-13.2 0,0 -0.3,-0.4 -0.7,-1.1 -0.1,-0.1 -0.1,-0.3 -0.2,-0.4 v 0 c -0.2,-0.4 -0.5,-0.9 -0.7,-1.5 -0.2,-0.6 -0.4,-1.3 -0.5,-2 v 0 0 c -0.1,-0.4 -0.1,-0.9 0,-1.3 v -0.1 c 0,-0.4 0.1,-0.7 0.2,-1.1 0,-0.1 0,-0.3 0.1,-0.4 0.1,-0.4000004 0.4,-0.7000004 0.6,-1.1000004 0.1,-0.1 0.1,-0.2 0.2,-0.4 0.4,-0.5 0.8,-0.9 1.4,-1.3 1.3,-0.9 3.1,-1.5 5.1,-1.7 1.7,-0.2 3.5,-0.2 5.3,0 0.9,0.1 1.7,0.1 2.6,0.3 2.2,0.3 4.1,0.8 5.7,1.5 h 0.1 v 0 c 0.9,0.4 1.6,0.8 2.3,1.2 0.1,0.1 0.2,0.1 0.3,0.2 0.5,0.3 0.9,0.5 1.3,0.8 0.2,0.2 0.4,0.3 0.6,0.5000004 0.5,0.4 1,0.8 1.4,1.2 0.3,0.2 0.5,0.5 0.7,0.7 0.2,0.2 0.4,0.4 0.6,0.6 0.3,0.3 0.5,0.6 0.7,0.8 0.9,-0.8 2,-1.4 3.5,-1.3 C 89,8.2625616 86.7,5.4625616 82.5,3.4625616 Z"
       id="path57"
       inkscape:connector-curvature="0"
       style="fill:#d8c1aa" /><path
       class="st7"
       d="m 84.1,29.162562 c -1.9,-1.6 -2.2,0.2 -4.1,2.4 -1.1,14.8 -12.6,18.8 -22.7,16.4 -7.1,-1.6 -24.7,3.8 -3.1,31.1 12.9,16.3 16.4,1.1 16.4,1.1 l 16.3,2.1 c 0,0 -11.5,-12.2 1.6,-18.1 10.3,-4.7 19.7,1.5 19.7,1.5 -3.3,-8.7 -10.1,-21.7 -24.1,-36.5 z"
       id="path59"
       inkscape:connector-curvature="0"
       style="fill:#d5b08d;fill-opacity:1" /><path
       sodipodi:nodetypes="cccccccc"
       class="st7"
       d="m 36.5,55.462562 c -1,-2.7 -1.8,-5.3 -2.4,-7.6 -1.3,-5 -1.4,-8.6 -1.9,-9.5 -1.3,-2.4 -11,4.5 -9.6,14.3 0.3,2.4 2.1,4.7 2.1,4.7 5.340602,6.328653 8.864459,10.011424 15.1,15.1 -3.8,-5.1 -9.7,-14.3 -9.1,-22.6 0.2,-3.6 3.3,1 5.8,5.6 z"
       id="path61"
       inkscape:connector-curvature="0"
       style="fill:#bc936d" /><path
       sodipodi:nodetypes="cccccc"
       class="st5"
       d="m 50.3,79.062562 c -7,-8.2 -11.2,-16.4 -13.8,-23.6 -2.6,-4.6 -5.6,-9.2 -5.8,-5.6 -0.5,8.3 5.3,17.5 9.1,22.6 0.5,0.5 0.9,0.8 0.9,0.8 7.613456,5.238964 6.493339,4.258301 9.6,5.8 z"
       id="path63"
       inkscape:connector-curvature="0"
       style="fill:#90785a" /><path
       sodipodi:nodetypes="cccccsccc"
       inkscape:connector-curvature="0"
       id="path184"
       d="m 97.312499,29.818812 c -4.318903,1.730705 -4.711795,4.08588 -4.90625,4.53125 0,0.3 -0.589945,0.523719 0.09866,1.334709 l 4.80759,6.477791 c 5.000001,7.3 14.275001,21.2 15.375001,33.5 0,0 3.36867,7.018813 4.90625,10.59375 0.42634,0.991249 0.47263,0.117596 1.59375,-6 3.28463,-16.069077 -8.81406,-38.437607 -13.58685,-45.839047 -1.78159,-2.490689 -5.16006,-4.452323 -8.288151,-4.598453 z"
       style="fill:#6a4e36" /><path
       class="st17"
       d="m 105.8,25.062562 c 0.7,-2 -2.6,-5.4 -7,-8.4 -2,-1.3 -4.2,-2.6 -6.4,-3.6 -2.1,0.1 -3.9,1.4 -5.8,5 -2.1,-0.2 -4.1,0.2 -5.9,0.9 2,0.1 7.9,0.7 14,5.3 6,0 11.1,0.8 11.1,0.8 z"
       id="path130"
       style="fill:url(#radialGradient4130)"
       inkscape:connector-curvature="0" /><path
       class="st18"
       d="m 75.2,22.262562 c 8,-0.9 7.8,3.8 7.8,3.8 3.4,-1.3 7.8,-1.7 11.8,-1.8 -6.1,-4.6 -11.9,-5.3 -14,-5.3 -3.4,1.2 -5.6,3.3 -5.6,3.3 z"
       id="path137"
       style="fill:url(#radialGradient4132)"
       inkscape:connector-curvature="0" /><path
       class="st19"
       d="m 75.2,22.262562 c 8,-0.9 7.8,3.8 7.8,3.8 3.4,-1.3 7.8,-1.7 11.8,-1.8 -6.1,-4.6 -11.9,-5.3 -14,-5.3 -3.4,1.2 -5.6,3.3 -5.6,3.3 z"
       id="path139"
       inkscape:connector-curvature="0"
       style="fill:#d74741" /><circle
       class="st3"
       cx="70.699997"
       cy="15.562561"
       r="1.8"
       id="circle141"
       style="fill:none" /><path
       class="st0"
       d="m 70.7,12.262562 c -1,0 -2.1,0.4 -2.7,1.1 -0.5,0.6 -0.6,1.4 -0.6,2.2 0,1.8 1.9,2.7 3.3,2.7 1.8,0 3.3,-0.9 3.3,-2.7 0,-1.8 -1.4,-3.3 -3.3,-3.3 z m 1.7,3.8"
       id="path143"
       inkscape:connector-curvature="0"
       style="fill:#58402a" /><path
       class="st0"
       d="m 70.7,8.6625616 c -4.5,-1.3 -7.6,1.8000004 -7.8,4.7000004 -0.3,4.6 4,8.4 7.8,8.4 3.8,0 6.3,-0.3 6.3,-5.7 0,-3.3 -2.6,-6.4000004 -6.3,-7.4000004 z m 0,9.9000004 c -1.1,-0.1 -3.6,-1.5 -3.8,-2.9 -0.4,-2.1 1.7,-4 3.8,-3.6 2.1,0.4 3.7,1.5 3.7,3.6 0,1.7 -1.6,3 -3.7,2.9 z"
       id="path145"
       inkscape:connector-curvature="0"
       style="fill:#58402a" /><path
       class="st20"
       d="m 70,11.862562 c -1,-0.1 -3,0.8 -3.4,2.3 -0.5,2.1 2.3,4.5 4.4,4.5 2.1,0 3.5,-1.2 3.5,-3.3 0.1,-2.1 -2.2,-3.4 -4.5,-3.5 z m 0.9,5.5 c -1.4,-0.7 -2,-2.1 -1.4,-3.2 0.3,-0.7 1.1,-1.3 2,-1.2 1.3,0.1 2.5,0.9 2.4,2.5 0,1.6 -1.7,2.5 -3,1.9 z"
       id="path152"
       style="fill:url(#radialGradient4134)"
       inkscape:connector-curvature="0" /><path
       d="m 71.6,13.662562 c -0.7,0.1 -1.3,0.7 -1.4,1.6 0,1 0.8,1.8 1.8,1.8 1,0 1.8,-0.5 1.9,-1.4 0.1,-1.8 -1.4,-2.2 -2.3,-2 z"
       id="path154"
       inkscape:connector-curvature="0" /><path
       d="m 74,17.262562 c -0.7,0.9 -2.2,1.4 -3.5,1.2 -2.2,-0.4 -4.1,-2 -4,-3.9 -0.3,1.9 1.5,4.2 3.7,4.5 1.6,0.2 3.6,-0.5 3.8,-1.8 z"
       id="path156"
       inkscape:connector-curvature="0" /><path
       d="m 74.5,14.962562 c -0.1,-1.1 -1.4,-2 -2.3,-2.3 -2.1,-0.8 -4.6,-0.5 -5.4,1.2 0.5,-2.1 2.4,-3 5.4,-2 1.7,0.5 2.4,2.5 2.3,3.1 z"
       id="path158"
       inkscape:connector-curvature="0" /><path
       d="m 74,17.262562 c -0.6,1 -2,1.7 -3.3,1.6 -2.2,-0.1 -4.3,-1.4 -4.5,-3.3 -0.1,1.9 2,3.9 4.3,4 1.6,0 3.5,-1 3.5,-2.3 z"
       id="path160"
       inkscape:connector-curvature="0" /><path
       class="st6"
       d="m 73.9,17.762562 c -0.6,1 -2,1.7 -3.3,1.6 -2.2,-0.1 -4.3,-1.4 -4.5,-3.3 -0.1,1.9 2,3.9 4.3,4 1.6,0 3.4,-1 3.5,-2.3 z"
       id="path162"
       inkscape:connector-curvature="0"
       style="fill:#d8c1aa" /><path
       d="m 74.5,15.162562 c 0.1,-1.1 -1,-2.3 -1.7,-2.8 -1.9,-1.2 -4.3,-1.5 -5.6,-0.1 1,-1.9 4.2,-1.7 5.7,-0.5 1.7,1.3 1.9,2.8 1.6,3.4 z"
       id="path164"
       inkscape:connector-curvature="0" /><path
       class="st6"
       d="m 74.7,14.462562 c 0.1,-1.1 -1,-2.3 -1.7,-2.8 -1.9,-1.2 -4.3,-1.5 -5.6,-0.1 1,-1.9000004 4.2,-1.7000004 5.7,-0.5 1.7,1.2 1.8,2.8 1.6,3.4 z"
       id="path166"
       inkscape:connector-curvature="0"
       style="fill:#d8c1aa" /><path
       class="st6"
       d="m 68,13.062562 -0.6,1.3 c 0.7,-0.1 1.4,-0.2 2.1,-0.2 0.2,-0.4 0.3,-0.7 0.5,-1.1 -0.7,0 -1.3,0 -2,0 z"
       id="path168"
       inkscape:connector-curvature="0"
       style="fill:#d8c1aa" /><polygon
       transform="translate(0,-1.3374384)"
       class="st6"
       points="71.7,14.7 70.4,14.4 69.8,15.7 71.3,15 "
       id="polygon170"
       style="fill:#d8c1aa" /><path
       sodipodi:nodetypes="scccccccccccs"
       inkscape:connector-curvature="0"
       id="path65"
       d="m 93.031249,25.225062 c -3.871875,0.07031 -7.1125,0.5 -9.4375,1.625 0,0 5.7125,4.41875 8.8125,8.71875 0,0 0.09363,-0.397107 0.28125,-0.875 0.435017,0.474889 0.877483,0.982478 1.3125,1.5625 0.3,0.3 0.5125,0.7 0.8125,1 2.40843,3.389037 5.089659,6.935242 7.593751,10.5 5.28838,7.677906 7.78125,11.21875 7.78125,11.21875 -0.4,-7.7 -3.68125,-14.925 -7.78125,-20.625 -2.27638,-2.750432 -3.939347,-5.245486 -6.437501,-7.53125 1.999807,-0.964841 4.968451,-0.724224 9.125001,2.9375 -2.7,-3.9 -5.300001,-7 -8.000001,-8.5 -1.425,-0.05 -2.771875,-0.05469 -4.0625,-0.03125 z"
       style="fill:#90785a" /><path
       class="st3"
       d="m 102.5,47.662562 c 4.3,7.9 7.7,11.2 7.7,11.2 -0.4,-7.7 -3.7,-14.9 -7.8,-20.6 l -4.3,2.9 c 1.8,2.4 3.4,4.7 4.4,6.5 z"
       id="path172"
       inkscape:connector-curvature="0"
       style="fill:none" /></g><g
     id="g759"
     transform="translate(-0.4,-0.79959791)"><path
       style="fill:#f7ec32"
       inkscape:connector-curvature="0"
       id="path447"
       d="m 71.2,89.8 -6.3,6.4 c -2,2 -2.1,5.1 -0.2,7.2 l 8.1,9.4 -5.5,-8 c -1.4,-2.1 -1.2,-4.9 0.6,-6.7 L 72.8,93 c 1,-1 2.4,-1.6 3.8,-1.6 h 10.5 c 1.5,0 2.8,0.6 3.8,1.6 l 4.1,4.2 c 1.8,1.9 2,4.7 0.4,6.8 l -6.4,8.8 8.5,-9.2 C 99.2,101.8 99.4,99.1 98,97 L 93.7,90.5 C 92.7,89 91.1,88.1 89.3,88.1 H 75 c -1.4,0.1 -2.8,0.7 -3.8,1.7 z"
       class="HCst0" /><path
       style="fill:#f7ec32"
       inkscape:connector-curvature="0"
       id="path449"
       d="M 72.2,77.6 62.8,68.1 C 62,67.3 62,66.1 62.7,65.3 l 10.1,-11.7 -7,10.2 c -0.6,0.8 -0.5,1.9 0.2,2.6 l 7.7,8 c 0.4,0.4 0.9,0.6 1.5,0.6 h 13.2 c 0.6,0 1.1,-0.2 1.5,-0.6 l 6.8,-7.1 c 0.7,-0.8 0.8,-2 0.1,-2.8 L 87.3,53.6 99,64.7 c 0.7,0.7 0.9,1.8 0.3,2.7 l -6.6,9.9 c -0.4,0.6 -1,0.9 -1.7,0.9 H 73.6 c -0.5,0 -1,-0.2 -1.4,-0.6 z"
       class="HCst0" /><path
       inkscape:connector-curvature="0"
       style="fill:url(#HCSVGID_1_)"
       id="path456"
       d="M 137.4,77.2 129.6,68 c -1.1,-1.3 -2.7,-2.1 -4.4,-2.1 h -16 -2.1 L 94,78.9 c -1.1,1.1 -2.5,1.7 -4.1,1.7 H 73.8 c -1.7,0 -3.3,-0.7 -4.4,-2 L 60.1,67.9 c -1.1,-1.3 -2.7,-2 -4.4,-2 h -12.6 -7 c -1.9,0 -3.6,0.9 -4.7,2.4 l -7.3,10.1 c -1,1.4 -2.5,2.2 -4.2,2.4 l -19.5,1.7 19.7,3.4 c 1.2,0.2 2.2,0.8 3.1,1.6 l 2.5,2.5 c 0.1,0.6 0.2,1.1 0.3,1.7 0.6,5.8 -0.5,12.9 4,13.8 4.3,0.8 3.5,-3.5 5.7,-2.7 4.3,1.5 -3.2,16.5 3.1,16.5 5.4,0 1.6,-7.1 1.6,-12.5 0,-2.5 1,-4.7 3.3,-5.3 4.1,-1 3.7,5.6 9.6,4.8 2.9,-0.4 1.1,-3.8 2.3,-4.6 1.7,-1.1 2.6,0.8 4.9,-1.2 0.9,-0.7 1.5,-3.1 1.9,-5.6 l 3.4,-3.4 3.5,-3.6 c 1.1,-1.1 2.6,-1.8 4.2,-1.7 l 16.9,0.3 c 1.5,0 3,0.7 4,1.7 l 6.4,6.5 c 0.6,0.6 1.1,1.4 1.4,2.3 3.6,10.5 8.5,6.4 8.5,6.4 0,0 6.4,-5.2 6.4,2 0,0.5 0,0.9 0.1,1.3 0.4,5.9 3.1,6.3 4.5,6.3 1.5,0 4.7,-1.7 3.9,-8.5 5.8,2.5 6.6,-3.2 7.1,-7.5 0.1,-1.1 0.6,-2.2 1.3,-3.1 l 4.8,-5.8 c 0.9,-1.1 2.1,-1.8 3.5,-2 L 164.4,82.6 141,79.2 c -1.4,-0.2 -2.7,-0.9 -3.6,-2 z M 52.3,97.7 H 38.7 c -1.6,0 -3.1,-0.6 -4.2,-1.8 l -10,-10.3 -1.7,-1.8 9.3,-13.5 c 1.1,-1.6 3,-2.6 5,-2.5 l 7.2,0.2 7.5,0.2 c 1.8,0.1 3.5,1 4.5,2.4 l 6.2,8.7 c 1.4,1.9 1.4,4.4 0.2,6.4 l -1.1,1.8 v 0.1 L 57.2,95 c -1,1.7 -2.9,2.7 -4.9,2.7 z m 79.5,-5.4 -1.7,2.7 c -1.1,1.7 -2.9,2.8 -4.9,2.8 h -6.2 -7.4 c -1.6,0 -3.1,-0.6 -4.2,-1.8 L 100.3,88.6 99,87.3 c -1.9,-2 -2.2,-5 -0.6,-7.3 l 8.4,-12.2 3,0.1 14.9,0.5 c 1.8,0.1 3.5,1 4.5,2.4 l 6.2,8.7 c 1.4,1.9 1.4,4.4 0.2,6.4 z"
       class="HCst1" /><path
       inkscape:connector-curvature="0"
       style="fill:url(#HCSVGID_2_)"
       id="path463"
       d="m 117.9,106.6 c 0,0 0.1,5.7 3.5,5.7 1.9,0 3.6,-2.2 3.4,-5.7 0,0 -0.5,3.9 -3.5,3.9 -1.4,0 -2.1,-1.2 -3.4,-3.9 z"
       class="HCst2" /><path
       inkscape:connector-curvature="0"
       style="fill:url(#HCSVGID_3_)"
       id="path470"
       d="m 27.2,98.9 c 0,0 0.1,5.7 3.5,5.7 1.3,0 2.1,-0.4 2.9,-2.1 0,0 -1.4,1.3 -2.9,1 -2.1,-0.5 -2.5,-1.8 -3.5,-4.6 z"
       class="HCst3" /><path
       inkscape:connector-curvature="0"
       style="fill:url(#HCSVGID_4_)"
       id="path477"
       d="m 37,113.8 c -0.6,0.7 -1,5 1.8,4.9 2.3,-0.1 2.9,-2.3 1.3,-5 0.2,0.2 1,4 -1.5,3.7 -2.1,-0.2 -1.8,-2.4 -1.6,-3.6 z"
       class="HCst4" /><path
       inkscape:connector-curvature="0"
       style="fill:url(#HCSVGID_5_)"
       id="path484"
       d="m 125.2,102.2 c 0,0 0.6,1.9 2.7,1.9 1.9,0 3.6,-2.2 3.4,-5.7 0,0 -0.6,2.8 -2.1,4.1 -1.2,1 -3.4,0.9 -4,-0.3 z"
       class="HCst5" /><path
       inkscape:connector-curvature="0"
       style="fill:url(#HCSVGID_6_)"
       id="path491"
       d="m 103.3,97.7 c 0,0 0.9,3.8 4,5.1 2.1,0.9 3.6,-0.9 6.3,-1.8 0,0 -3.5,1.4 -5.5,1.1 -1.4,-0.2 -3.5,-1.7 -4.8,-4.4 z"
       class="HCst6" /></g></svg>